<svg xmlns="http://www.w3.org/2000/svg" viewBox="0 0 1440 320">
    <defs>
        <linearGradient id="gradient" x1="0%" y1="0%" x2="100%" y2="0%">
            <stop offset="0%" style="stop-color:#8cc4ff;stop-opacity:1" />
            <stop offset="100%" style="stop-color:#5c95d3;stop-opacity:1" />
        </linearGradient>
    </defs>
    <path fill="url(#gradient)" d="M0,192L48,192C96,192,192,192,288,192C384,192,480,192,576,176C672,160,768,128,864,144C960,160,1056,224,1152,240C1248,256,1344,224,1392,208L1440,192L1440,320L1392,320C1344,320,1248,320,1152,320C1056,320,960,320,864,320C768,320,672,320,576,320C480,320,384,320,288,320C192,320,96,320,48,320L0,320Z"></path>
</svg>
