<svg xmlns="http://www.w3.org/2000/svg" viewBox="0 0 1440 320">
    <defs>
        <linearGradient id="gradient" x1="0%" y1="0%" x2="100%" y2="0%">
            <stop offset="0%" style="stop-color:#8cc4ff;stop-opacity:1" />
            <stop offset="100%" style="stop-color:#5c95d3;stop-opacity:1" />
        </linearGradient>
    </defs>
    <path fill="url(#gradient)" d="M0,256L48,245.3C96,235,192,213,288,218.7C384,224,480,256,576,245.3C672,235,768,181,864,181.3C960,181,1056,235,1152,250.7C1248,267,1344,245,1392,234.7L1440,224L1440,320L1392,320C1344,320,1248,320,1152,320C1056,320,960,320,864,320C768,320,672,320,576,320C480,320,384,320,288,320C192,320,96,320,48,320L0,320Z"/>
</svg>
